<svg fill="none" height="60" viewBox="0 0 60 60" width="60" xmlns="http://www.w3.org/2000/svg"><path d="m0 0h60v60h-60z" fill="#fff"/><path d="m34.2017 31.784c1.7768-1.311 2.9383-3.4212 2.9383-5.7872 0-3.9413-3.2174-7.1468-7.15-7.1468h-.3623l.0287.0286c-3.7792.1848-6.7964 3.3156-6.7964 7.1382 0 2.3653 1.1608 4.4753 2.9374 5.7776-3.4933 1.6059-5.9474 5.1284-5.9474 9.2056v.15h.15 2 .15v-.15c0-4.3451 3.5028-7.8464 7.85-7.8464 4.3373 0 7.85 3.5014 7.85 7.8464v.15h.15 2 .15v-.15c0-4.0872-2.4545-7.6103-5.9483-9.216zm-4.1917-10.6149c2.6874 0 4.85 2.1521 4.85 4.8477 0 2.6858-2.1628 4.8477-4.85 4.8477-2.697 0-4.85-2.1617-4.85-4.8477 0-2.6958 2.1528-4.8477 4.85-4.8477z" fill="#161819" stroke="#161819" stroke-width=".3"/></svg>